<svg xmlns="http://www.w3.org/2000/svg" width="192" height="192" viewBox="0 0 192 192">
  <rect width="192" height="192" rx="24" fill="#2563eb"/>
  <path d="M96 56c-22.1 0-40 17.9-40 40s17.9 40 40 40 40-17.9 40-40-17.9-40-40-40zm0 64c-13.3 0-24-10.7-24-24s10.7-24 24-24 24 10.7 24 24-10.7 24-24 24z" fill="white"/>
  <circle cx="96" cy="96" r="12" fill="white"/>
  <path d="M136 52H56c-8.8 0-16 7.2-16 16v56c0 8.8 7.2 16 16 16h80c8.8 0 16-7.2 16-16V68c0-8.8-7.2-16-16-16zm0 72H56V68h80v56z" fill="white" opacity="0.3"/>
</svg>
